<?xml version="1.0" encoding="UTF-8" standalone="no"?>
<svg
   xmlns:dc="http://purl.org/dc/elements/1.1/"
   xmlns:cc="http://creativecommons.org/ns#"
   xmlns:rdf="http://www.w3.org/1999/02/22-rdf-syntax-ns#"
   xmlns:svg="http://www.w3.org/2000/svg"
   xmlns="http://www.w3.org/2000/svg"
   xmlns:sodipodi="http://sodipodi.sourceforge.net/DTD/sodipodi-0.dtd"
   xmlns:inkscape="http://www.inkscape.org/namespaces/inkscape"
   id="svg2248"
   version="1.1"
   viewBox="0 0 157.45482 47.229595"
   height="47.229595mm"
   width="157.45482mm"
   inkscape:version="0.91 r13725"
   sodipodi:docname="slogan.svg">
  <sodipodi:namedview
     pagecolor="#ffffff"
     bordercolor="#666666"
     borderopacity="1"
     objecttolerance="10"
     gridtolerance="10"
     guidetolerance="10"
     inkscape:pageopacity="0"
     inkscape:pageshadow="2"
     inkscape:window-width="1366"
     inkscape:window-height="732"
     id="namedview20"
     showgrid="false"
     inkscape:zoom="1.0880646"
     inkscape:cx="278.95539"
     inkscape:cy="83.67448"
     inkscape:window-x="0"
     inkscape:window-y="0"
     inkscape:window-maximized="1"
     inkscape:current-layer="svg2248" />
  <defs
     id="defs2242" />
  <metadata
     id="metadata2245">
    <rdf:RDF>
      <cc:Work
         rdf:about="">
        <dc:format>image/svg+xml</dc:format>
        <dc:type
           rdf:resource="http://purl.org/dc/dcmitype/StillImage" />
        <dc:title />
      </cc:Work>
    </rdf:RDF>
  </metadata>
  <g
     transform="translate(34.882173,-174.35544)"
     id="layer1">
    <g
       transform="matrix(0.33072917,0,0,-0.33072917,-418.87298,288.33361)"
       id="g6808">
      <g
         transform="scale(1,-1)"
         style="font-style:normal;font-variant:normal;font-weight:300;font-stretch:normal;line-height:0%;font-family:'Source Sans Pro';-inkscape-font-specification:'Source Sans Pro Light';letter-spacing:0.80068761px;word-spacing:0px;fill:#333333;fill-opacity:1;stroke:none;stroke-width:1px;stroke-linecap:butt;stroke-linejoin:miter;stroke-opacity:1"
         id="text6589">
        <path
           d="m 1161.0431,-227.39119 0,-31.65919 8.5513,0 q 4.8041,0 7.6386,1.87361 2.8344,1.82557 2.8344,5.81299 0,2.49815 -1.2491,4.37176 -1.249,1.82557 -3.6511,2.54618 l 0,0.19217 q 3.0746,0.52845 4.9482,2.4501 1.8736,1.87361 1.8736,5.18846 0,2.30598 -0.8647,4.03546 -0.8167,1.72949 -2.354,2.88248 -1.5373,1.15299 -3.6992,1.72949 -2.1619,0.57649 -4.8522,0.57649 l -9.1758,0 z m 2.2099,-17.72722 5.4767,0 q 4.8521,0 6.9659,-1.58536 2.1619,-1.63341 2.1619,-4.4198 0,-3.36289 -2.2579,-4.70804 -2.258,-1.3932 -6.6297,-1.3932 l -5.7169,0 0,12.1064 z m 0,15.90165 6.3894,0 q 4.7561,0 7.4464,-1.77752 2.7384,-1.77753 2.7384,-5.57279 0,-3.45897 -2.6423,-5.09237 -2.6422,-1.63341 -7.5425,-1.63341 l -6.3894,0 0,14.07609 z"
           style="font-size:48.04125595px;line-height:4.21999979"
           id="path4149" />
        <path
           d="m 1198.1209,-226.81469 q -2.2099,0 -4.1796,-0.81671 -1.9216,-0.8167 -3.3629,-2.35402 -1.4412,-1.58536 -2.306,-3.79526 -0.8167,-2.25794 -0.8167,-5.09237 0,-2.83443 0.8167,-5.09237 0.8648,-2.25794 2.258,-3.79526 1.4412,-1.58536 3.2187,-2.40206 1.8256,-0.86475 3.7473,-0.86475 4.1315,0 6.4855,2.7864 2.3541,2.78639 2.3541,7.87876 0,0.43237 0,0.86474 0,0.43238 -0.096,0.86475 l -16.6223,0 q 0.048,2.16185 0.6726,4.03546 0.6245,1.82557 1.7295,3.17072 1.153,1.29712 2.7383,2.06578 1.5854,0.72062 3.5551,0.72062 1.8736,0 3.3629,-0.52846 1.5373,-0.57649 2.8344,-1.53732 l 0.8647,1.63341 q -1.3932,0.8167 -3.0746,1.53732 -1.6334,0.72062 -4.1796,0.72062 z m -8.5033,-13.54764 14.7006,0 q 0,-4.46784 -1.8255,-6.62969 -1.8256,-2.2099 -4.9483,-2.2099 -1.4893,0 -2.8344,0.62454 -1.3452,0.57649 -2.4501,1.72948 -1.0569,1.15299 -1.7776,2.78639 -0.6725,1.63341 -0.8647,3.69918 z"
           style="font-size:48.04125595px;line-height:4.21999979"
           id="path4151" />
        <path
           d="m 1216.1887,-226.81469 q -2.8345,0 -2.8345,-3.65114 l 0,-31.46702 2.1138,0 0,31.75527 q 0,0.76866 0.2883,1.15299 0.2882,0.33629 0.7206,0.33629 0.1441,0 0.2883,0 0.1921,0 0.5765,-0.0961 l 0.3843,1.72949 q -0.3363,0.0961 -0.6726,0.14412 -0.3363,0.0961 -0.8647,0.0961 z"
           style="font-size:48.04125595px;line-height:4.21999979"
           id="path4153" />
        <path
           d="m 1230.5528,-226.81469 q -1.3932,0 -2.5943,-0.38433 -1.201,-0.38433 -2.1138,-1.15299 -0.9128,-0.76866 -1.4412,-1.9697 -0.5285,-1.20103 -0.5285,-2.83443 0,-3.8433 3.5551,-5.81299 3.6031,-2.01774 11.3377,-2.88248 0,-1.29711 -0.1922,-2.59423 -0.1921,-1.34515 -0.8167,-2.35402 -0.6245,-1.0569 -1.6814,-1.68144 -1.0569,-0.67258 -2.7864,-0.67258 -2.306,0 -4.2276,0.91279 -1.9217,0.91278 -3.1227,1.77752 l -0.9608,-1.58536 q 0.6245,-0.43237 1.4892,-0.96082 0.9128,-0.52846 2.0178,-0.96083 1.1049,-0.43237 2.402,-0.72062 1.2972,-0.33629 2.6903,-0.33629 2.0178,0 3.411,0.72062 1.3932,0.67258 2.2579,1.87361 0.8648,1.20103 1.2491,2.83443 0.3843,1.58537 0.3843,3.45897 l 0,14.74867 -1.8255,0 -0.1922,-2.97856 -0.1441,0 q -1.7776,1.3932 -3.8433,2.49815 -2.0178,1.05691 -4.3237,1.05691 z m 0.3843,-1.82557 q 2.0177,0 3.8433,-0.96083 1.8255,-0.96082 3.9874,-2.78639 l 0,-7.83072 q -3.555,0.43237 -6.0052,1.0569 -2.4501,0.62454 -3.9393,1.48928 -1.4893,0.86474 -2.1619,1.96969 -0.6245,1.10495 -0.6245,2.45011 0,1.24907 0.3843,2.11381 0.3843,0.86475 1.0569,1.44124 0.6726,0.52845 1.5373,0.8167 0.9128,0.24021 1.9217,0.24021 z"
           style="font-size:48.04125595px;line-height:4.21999979"
           id="path4155" />
        <path
           d="m 1249.8606,-227.39119 0,-23.0598 1.8256,0 0.1921,3.55505 0.1441,0 q 1.7776,-1.77753 3.6512,-2.93052 1.8736,-1.20103 4.2756,-1.20103 3.6031,0 5.2846,2.16186 1.6814,2.16186 1.6814,6.67773 l 0,14.79671 -2.1138,0 0,-14.50846 q 0,-3.69918 -1.2491,-5.42866 -1.201,-1.77753 -4.0354,-1.77753 -2.0658,0 -3.7472,1.10495 -1.6815,1.05691 -3.7953,3.21877 l 0,17.39093 -2.1138,0 z"
           style="font-size:48.04125595px;line-height:4.21999979"
           id="path4157" />
        <path
           d="m 1273.1566,-216.38974 q -0.8167,0 -1.6334,-0.19217 -0.8167,-0.14412 -1.3452,-0.38433 l 0.5285,-1.72948 q 0.4324,0.14412 1.0569,0.28825 0.6726,0.19216 1.3451,0.19216 1.9217,0 2.4982,-1.44124 0.5765,-1.39319 0.5765,-3.60309 l 0,-27.19135 2.1618,0 0,27.33547 q 0,3.41093 -1.249,5.04433 -1.2491,1.68145 -3.9394,1.68145 z m 4.1315,-39.63404 q -0.7686,0 -1.3451,-0.52845 -0.5765,-0.52846 -0.5765,-1.34516 0,-0.91278 0.5765,-1.39319 0.5765,-0.52846 1.3451,-0.52846 0.8167,0 1.3932,0.52846 0.5765,0.48041 0.5765,1.39319 0,0.8167 -0.5765,1.34516 -0.5765,0.52845 -1.3932,0.52845 z"
           style="font-size:48.04125595px;line-height:4.21999979"
           id="path4159" />
        <path
           d="m 1293.0064,-226.81469 q -1.3932,0 -2.5942,-0.38433 -1.2011,-0.38433 -2.1139,-1.15299 -0.9127,-0.76866 -1.4412,-1.9697 -0.5284,-1.20103 -0.5284,-2.83443 0,-3.8433 3.555,-5.81299 3.6031,-2.01774 11.3377,-2.88248 0,-1.29711 -0.1921,-2.59423 -0.1922,-1.34515 -0.8167,-2.35402 -0.6246,-1.0569 -1.6815,-1.68144 -1.0569,-0.67258 -2.7864,-0.67258 -2.3059,0 -4.2276,0.91279 -1.9216,0.91278 -3.1227,1.77752 l -0.9608,-1.58536 q 0.6245,-0.43237 1.4893,-0.96082 0.9128,-0.52846 2.0177,-0.96083 1.105,-0.43237 2.4021,-0.72062 1.2971,-0.33629 2.6903,-0.33629 2.0177,0 3.4109,0.72062 1.3932,0.67258 2.258,1.87361 0.8647,1.20103 1.249,2.83443 0.3844,1.58537 0.3844,3.45897 l 0,14.74867 -1.8256,0 -0.1922,-2.97856 -0.1441,0 q -1.7775,1.3932 -3.8433,2.49815 -2.0177,1.05691 -4.3237,1.05691 z m 0.3843,-1.82557 q 2.0177,0 3.8433,-0.96083 1.8256,-0.96082 3.9874,-2.78639 l 0,-7.83072 q -3.555,0.43237 -6.0051,1.0569 -2.4501,0.62454 -3.9394,1.48928 -1.4893,0.86474 -2.1619,1.96969 -0.6245,1.10495 -0.6245,2.45011 0,1.24907 0.3843,2.11381 0.3844,0.86475 1.0569,1.44124 0.6726,0.52845 1.5374,0.8167 0.9128,0.24021 1.9216,0.24021 z"
           style="font-size:48.04125595px;line-height:4.21999979"
           id="path4161" />
        <path
           d="m 1328.2584,-226.81469 q -2.5942,0 -4.7561,-0.91279 -2.1618,-0.96082 -3.6992,-2.25794 l 1.2491,-1.58536 q 1.4893,1.24907 3.1707,2.11382 1.6815,0.8167 4.1796,0.8167 2.7384,0 4.0835,-1.34516 1.3932,-1.39319 1.3932,-3.21876 0,-1.05691 -0.5284,-1.87361 -0.4804,-0.8167 -1.2971,-1.3932 -0.8167,-0.57649 -1.8256,-1.00886 -0.9608,-0.43237 -1.9697,-0.8167 -1.2971,-0.48042 -2.6423,-1.00887 -1.2971,-0.52845 -2.354,-1.24907 -1.0569,-0.76866 -1.7295,-1.77753 -0.6245,-1.05691 -0.6245,-2.54619 0,-1.24907 0.4804,-2.35402 0.4804,-1.15299 1.4412,-1.96969 0.9609,-0.86474 2.306,-1.34515 1.3932,-0.48042 3.2188,-0.48042 1.8256,0 3.555,0.67258 1.7776,0.67258 3.0266,1.72949 l -1.153,1.48927 q -1.1529,-0.86474 -2.4501,-1.44123 -1.2971,-0.62454 -3.0746,-0.62454 -1.3452,0 -2.306,0.38433 -0.9608,0.33629 -1.6334,0.91278 -0.6245,0.5765 -0.9608,1.34516 -0.2883,0.76866 -0.2883,1.53732 0,1.00887 0.4324,1.72948 0.4804,0.67258 1.2491,1.20104 0.7687,0.52845 1.7295,0.96082 1.0088,0.38433 2.0177,0.76866 1.3452,0.52846 2.6903,1.05691 1.3452,0.52845 2.4021,1.29711 1.1049,0.76866 1.7775,1.92165 0.6726,1.10495 0.6726,2.7864 0,1.29711 -0.5285,2.49814 -0.4804,1.15299 -1.4892,2.06578 -1.0089,0.86474 -2.4501,1.39319 -1.4413,0.52846 -3.3149,0.52846 z"
           style="font-size:48.04125595px;line-height:4.21999979"
           id="path4163" />
        <path
           d="m 1351.6527,-226.81469 q -2.2099,0 -4.1795,-0.81671 -1.9217,-0.8167 -3.3629,-2.35402 -1.4413,-1.58536 -2.306,-3.79526 -0.8167,-2.25794 -0.8167,-5.09237 0,-2.83443 0.8167,-5.09237 0.8647,-2.25794 2.2579,-3.79526 1.4413,-1.58536 3.2188,-2.40206 1.8256,-0.86475 3.7472,-0.86475 4.1316,0 6.4856,2.7864 2.354,2.78639 2.354,7.87876 0,0.43237 0,0.86474 0,0.43238 -0.096,0.86475 l -16.6223,0 q 0.048,2.16185 0.6726,4.03546 0.6246,1.82557 1.7295,3.17072 1.153,1.29712 2.7384,2.06578 1.5853,0.72062 3.555,0.72062 1.8736,0 3.3629,-0.52846 1.5373,-0.57649 2.8344,-1.53732 l 0.8648,1.63341 q -1.3932,0.8167 -3.0747,1.53732 -1.6334,0.72062 -4.1796,0.72062 z m -8.5033,-13.54764 14.7007,0 q 0,-4.46784 -1.8256,-6.62969 -1.8256,-2.2099 -4.9483,-2.2099 -1.4892,0 -2.8344,0.62454 -1.3451,0.57649 -2.4501,1.72948 -1.0569,1.15299 -1.7775,2.78639 -0.6726,1.63341 -0.8648,3.69918 z"
           style="font-size:48.04125595px;line-height:4.21999979"
           id="path4165" />
        <path
           d="m 1366.8861,-227.39119 0,-23.0598 1.8256,0 0.1921,3.55505 0.1441,0 q 1.5374,-1.77753 3.411,-2.93052 1.9216,-1.20103 3.8433,-1.20103 2.7864,0 4.2756,1.29712 1.4893,1.24907 2.1139,3.41093 2.0177,-2.16186 3.8913,-3.41093 1.9217,-1.29712 3.9394,-1.29712 6.9179,0 6.9179,8.83959 l 0,14.79671 -2.1618,0 0,-14.50846 q 0,-3.69918 -1.2491,-5.42866 -1.2491,-1.77753 -3.8913,-1.77753 -3.1227,0 -6.918,4.32372 l 0,17.39093 -2.1138,0 0,-14.50846 q 0,-3.69918 -1.2491,-5.42866 -1.249,-1.77753 -3.9394,-1.77753 -3.1226,0 -6.9179,4.32372 l 0,17.39093 -2.1138,0 z"
           style="font-size:48.04125595px;line-height:4.21999979"
           id="path4167" />
        <path
           d="m 1411.7646,-226.81469 q -1.3932,0 -2.5942,-0.38433 -1.201,-0.38433 -2.1138,-1.15299 -0.9128,-0.76866 -1.4413,-1.9697 -0.5284,-1.20103 -0.5284,-2.83443 0,-3.8433 3.555,-5.81299 3.6031,-2.01774 11.3378,-2.88248 0,-1.29711 -0.1922,-2.59423 -0.1922,-1.34515 -0.8167,-2.35402 -0.6245,-1.0569 -1.6814,-1.68144 -1.0569,-0.67258 -2.7864,-0.67258 -2.306,0 -4.2277,0.91279 -1.9216,0.91278 -3.1226,1.77752 l -0.9609,-1.58536 q 0.6246,-0.43237 1.4893,-0.96082 0.9128,-0.52846 2.0177,-0.96083 1.105,-0.43237 2.4021,-0.72062 1.2971,-0.33629 2.6903,-0.33629 2.0178,0 3.4109,0.72062 1.3932,0.67258 2.258,1.87361 0.8647,1.20103 1.2491,2.83443 0.3843,1.58537 0.3843,3.45897 l 0,14.74867 -1.8256,0 -0.1921,-2.97856 -0.1442,0 q -1.7775,1.3932 -3.8433,2.49815 -2.0177,1.05691 -4.3237,1.05691 z m 0.3843,-1.82557 q 2.0178,0 3.8433,-0.96083 1.8256,-0.96082 3.9875,-2.78639 l 0,-7.83072 q -3.5551,0.43237 -6.0052,1.0569 -2.4501,0.62454 -3.9394,1.48928 -1.4892,0.86474 -2.1618,1.96969 -0.6246,1.10495 -0.6246,2.45011 0,1.24907 0.3844,2.11381 0.3843,0.86475 1.0569,1.44124 0.6726,0.52845 1.5373,0.8167 0.9128,0.24021 1.9216,0.24021 z"
           style="font-size:48.04125595px;line-height:4.21999979"
           id="path4169" />
        <path
           d="m 1431.0724,-227.39119 0,-34.54166 2.1139,0 0,25.46186 0.096,0 11.3858,-13.98 2.4501,0 -7.4944,9.12784 8.7435,13.93196 -2.354,0 -7.6386,-12.3466 -5.1884,6.0532 0,6.2934 -2.1139,0 z"
           style="font-size:48.04125595px;line-height:4.21999979"
           id="path4171" />
        <path
           d="m 1454.2048,-227.39119 0,-23.0598 2.1138,0 0,23.0598 -2.1138,0 z m 1.105,-28.63259 q -0.8167,0 -1.3932,-0.52845 -0.5285,-0.52846 -0.5285,-1.34516 0,-0.91278 0.5285,-1.39319 0.5765,-0.52846 1.3932,-0.52846 0.8167,0 1.3451,0.52846 0.5765,0.48041 0.5765,1.39319 0,0.8167 -0.5765,1.34516 -0.5284,0.52845 -1.3451,0.52845 z"
           style="font-size:48.04125595px;line-height:4.21999979"
           id="path4173" />
        <path
           d="m 1465.9837,-227.39119 0,-23.0598 1.8255,0 0.1922,3.55505 0.1441,0 q 1.7776,-1.77753 3.6512,-2.93052 1.8736,-1.20103 4.2756,-1.20103 3.6031,0 5.2846,2.16186 1.6814,2.16186 1.6814,6.67773 l 0,14.79671 -2.1138,0 0,-14.50846 q 0,-3.69918 -1.2491,-5.42866 -1.201,-1.77753 -4.0354,-1.77753 -2.0658,0 -3.7473,1.10495 -1.6814,1.05691 -3.7952,3.21877 l 0,17.39093 -2.1138,0 z"
           style="font-size:48.04125595px;line-height:4.21999979"
           id="path4175" />
        <path
           d="m 1502.6777,-227.39119 0,-23.0598 1.8256,0 0.1921,3.55505 0.1442,0 q 1.5373,-1.77753 3.4109,-2.93052 1.9216,-1.20103 3.8433,-1.20103 2.7864,0 4.2757,1.29712 1.4892,1.24907 2.1138,3.41093 2.0177,-2.16186 3.8913,-3.41093 1.9217,-1.29712 3.9394,-1.29712 6.9179,0 6.9179,8.83959 l 0,14.79671 -2.1618,0 0,-14.50846 q 0,-3.69918 -1.2491,-5.42866 -1.2491,-1.77753 -3.8913,-1.77753 -3.1227,0 -6.918,4.32372 l 0,17.39093 -2.1138,0 0,-14.50846 q 0,-3.69918 -1.2491,-5.42866 -1.249,-1.77753 -3.9393,-1.77753 -3.1227,0 -6.918,4.32372 l 0,17.39093 -2.1138,0 z"
           style="font-size:48.04125595px;line-height:4.21999979"
           id="path4177" />
        <path
           d="m 1549.1416,-226.81469 q -3.6031,0 -5.2845,-2.16186 -1.6815,-2.16186 -1.6815,-6.67774 l 0,-14.7967 2.1138,0 0,14.50846 q 0,3.69917 1.2011,5.4767 1.249,1.72949 4.0354,1.72949 2.0658,0 3.7472,-1.10495 1.6815,-1.15299 3.6992,-3.6031 l 0,-17.0066 2.1138,0 0,23.0598 -1.7775,0 -0.2402,-3.8433 -0.096,0 q -1.6814,2.01773 -3.555,3.21876 -1.8736,1.20104 -4.2757,1.20104 z"
           style="font-size:48.04125595px;line-height:4.21999979"
           id="path4179" />
        <path
           d="m 1576.3792,-226.81469 q -4.3717,0 -6.9659,-3.07464 -2.5943,-3.12269 -2.5943,-8.98372 0,-2.78639 0.8167,-5.04433 0.8167,-2.25794 2.2099,-3.8433 1.4413,-1.58536 3.2668,-2.40206 1.8737,-0.86475 3.9394,-0.86475 2.1138,0 3.6512,0.76866 1.5853,0.72062 3.3148,2.06578 l -0.096,-4.22763 0,-9.51217 2.1138,0 0,34.54166 -1.8255,0 -0.1922,-2.97856 -0.1441,0 q -1.3932,1.3932 -3.3149,2.49815 -1.8736,1.05691 -4.1796,1.05691 z m 0.2883,-1.87361 q 1.9216,0 3.6511,-0.96083 1.7776,-1.00886 3.6031,-2.83443 l 0,-13.69176 q -1.8255,-1.6334 -3.4589,-2.30598 -1.5854,-0.67258 -3.2669,-0.67258 -1.7294,0 -3.2187,0.8167 -1.4893,0.76866 -2.5942,2.16186 -1.057,1.34515 -1.6815,3.2668 -0.6245,1.87361 -0.6245,4.03547 0,2.30598 0.4804,4.17959 0.5284,1.87361 1.4893,3.21876 0.9608,1.29712 2.354,2.06578 1.4412,0.72062 3.2668,0.72062 z"
           style="font-size:48.04125595px;line-height:4.21999979"
           id="path4181" />
        <path
           d="m 1600.7644,-226.81469 q -1.3932,0 -2.5942,-0.38433 -1.201,-0.38433 -2.1138,-1.15299 -0.9128,-0.76866 -1.4413,-1.9697 -0.5284,-1.20103 -0.5284,-2.83443 0,-3.8433 3.555,-5.81299 3.6031,-2.01774 11.3378,-2.88248 0,-1.29711 -0.1922,-2.59423 -0.1922,-1.34515 -0.8167,-2.35402 -0.6245,-1.0569 -1.6814,-1.68144 -1.0569,-0.67258 -2.7864,-0.67258 -2.306,0 -4.2277,0.91279 -1.9216,0.91278 -3.1226,1.77752 l -0.9609,-1.58536 q 0.6246,-0.43237 1.4893,-0.96082 0.9128,-0.52846 2.0177,-0.96083 1.105,-0.43237 2.4021,-0.72062 1.2971,-0.33629 2.6903,-0.33629 2.0178,0 3.4109,0.72062 1.3932,0.67258 2.258,1.87361 0.8647,1.20103 1.2491,2.83443 0.3843,1.58537 0.3843,3.45897 l 0,14.74867 -1.8256,0 -0.1921,-2.97856 -0.1442,0 q -1.7775,1.3932 -3.8433,2.49815 -2.0177,1.05691 -4.3237,1.05691 z m 0.3844,-1.82557 q 2.0177,0 3.8433,-0.96083 1.8255,-0.96082 3.9874,-2.78639 l 0,-7.83072 q -3.5551,0.43237 -6.0052,1.0569 -2.4501,0.62454 -3.9394,1.48928 -1.4892,0.86474 -2.1618,1.96969 -0.6246,1.10495 -0.6246,2.45011 0,1.24907 0.3844,2.11381 0.3843,0.86475 1.0569,1.44124 0.6726,0.52845 1.5373,0.8167 0.9128,0.24021 1.9217,0.24021 z"
           style="font-size:48.04125595px;line-height:4.21999979"
           id="path4183" />
        <path
           d="m 1620.0723,-227.39119 0,-34.54166 2.1138,0 0,15.08495 q 1.8255,-1.82557 3.6992,-2.97856 1.8736,-1.20103 4.2756,-1.20103 3.6031,0 5.2846,2.16186 1.6814,2.16186 1.6814,6.67773 l 0,14.79671 -2.1138,0 0,-14.50846 q 0,-3.69918 -1.2491,-5.42866 -1.201,-1.77753 -4.0354,-1.77753 -2.0658,0 -3.7473,1.10495 -1.6814,1.05691 -3.7952,3.21877 l 0,17.39093 -2.1138,0 z"
           style="font-size:48.04125595px;line-height:4.21999979"
           id="path4185" />
      </g>
      <g
         id="g6597"
         transform="translate(48.565698)">
        <g
           transform="matrix(0.39307019,0,0,-0.39307019,1213.1209,344.62689)"
           id="g5726">
          <path
             d="M 93.4,0 A 93.4001,93.4001 0 0 1 186.8002,93.4001 93.4001,93.4001 0 1 1 93.4,0 Z"
             style="fill:#48b550;fill-rule:evenodd"
             id="path4" />
          <path
             d="M 93.4,8.8597 A 84.5405,84.5405 0 0 1 177.9405,93.4001 84.5405,84.5405 0 1 1 93.4,8.8597 Z"
             style="fill:#54d95d;fill-rule:evenodd"
             id="path6" />
          <path
             d="M 91.2953,177.914 C 47.3314,176.8396 11.6956,142.2011 9.0265,98.6499 L 55.835,51.8414 c -3.3219,4.2568 -6.0814,9.1091 -8.0869,14.4329 -7.081,18.7945 -7.7964,42.3893 2.429,60.7357 l -7.6431,3.0863 1.0026,15.7252 15.2351,-6.6373 c 21.1303,20.2088 50.2725,18.0819 68.5114,2.742 z"
             style="fill:#48b550;fill-rule:evenodd"
             id="path8" />
          <path
             d="m 81.8718,47.9069 c 11.105,-7.6878 26.9921,14.7419 -13.9569,11.6189 1.1508,-2.7087 1.5142,-5.377 13.9569,-11.6189 z"
             style="fill:#48b550;fill-rule:evenodd"
             id="path10" />
          <path
             d="m 120.6546,82.1007 -12.4739,12.4738 c 0.4119,14.1118 -10.9978,31.4689 -31.6834,37.3244 22.7875,18.7829 69.1691,-11.7295 44.1573,-49.7982 z"
             style="fill:#48b550;fill-rule:evenodd"
             id="path12" />
          <path
             d="m 66.6481,119.5699 c -0.7223,0.7058 0.2619,0.5508 -0.5139,0.1046 -4.9536,-2.8596 -11.6402,-22.3328 -5.8026,-34.8321 31.4657,-21.7384 42.8355,23.282 6.3165,34.7275 z"
             style="fill:#48b550;fill-rule:evenodd"
             id="path14" />
          <path
             d="M 90.1806,32.9099 C 72.1621,33.8758 55.0135,46.9874 47.748,66.2746 c -7.081,18.7946 -7.7963,42.3891 2.429,60.7357 l -7.6429,3.0864 1.0024,15.7251 15.2351,-6.6374 c 40.6783,38.904 111.0688,-4.9438 76.1439,-66.5539 -10.5871,6.4333 -3.713,2.5571 -14.3016,9.4057 25.1069,38.0987 -21.3162,68.6559 -44.1164,49.8628 21.4527,-6.0728 32.9311,-24.5167 31.5906,-38.8814 -1.0476,-11.2107 -7.4584,-19.2634 -18.1497,-23.0735 25.0743,-3.116 28.1355,-33.5465 0.2422,-37.0342 z m -23.5325,86.6603 c -0.7223,0.7055 0.2619,0.5506 -0.5139,0.1042 -4.9536,-2.8596 -11.6402,-22.3327 -5.8026,-34.832 31.4655,-21.7386 42.8353,23.2819 6.3165,34.7278 z M 81.8719,47.9068 c 11.105,-7.6878 26.9921,14.7421 -13.9567,11.6191 1.1506,-2.7091 1.5139,-5.3772 13.9567,-11.6191 z"
             style="fill:#ffffff;fill-rule:evenodd"
             id="path16" />
        </g>
        <text
           transform="scale(1,-1)"
           id="text6593"
           y="-290.01956"
           x="1298.8577"
           style="font-style:normal;font-variant:normal;font-weight:normal;font-stretch:normal;line-height:0%;font-family:'Source Sans Pro';-inkscape-font-specification:'Source Sans Pro';letter-spacing:0.80000001px;word-spacing:0px;fill:#48b550;fill-opacity:1;stroke:none;stroke-width:1px;stroke-linecap:butt;stroke-linejoin:miter;stroke-opacity:1"
           xml:space="preserve"><tspan
             style="font-style:normal;font-variant:normal;font-weight:normal;font-stretch:normal;font-size:48px;line-height:4.21999979;font-family:'Source Sans Pro';-inkscape-font-specification:'Source Sans Pro';letter-spacing:0.072px;fill:#48b550;fill-opacity:1"
             y="-290.01956"
             x="1298.8577"
             id="tspan6595">Bi-Mobile</tspan></text>
      </g>
    </g>
  </g>
</svg>
