<?xml version="1.0" encoding="UTF-8" standalone="no"?>
<!-- Created with Inkscape (http://www.inkscape.org/) -->

<svg
   xmlns:dc="http://purl.org/dc/elements/1.1/"
   xmlns:cc="http://creativecommons.org/ns#"
   xmlns:rdf="http://www.w3.org/1999/02/22-rdf-syntax-ns#"
   xmlns:svg="http://www.w3.org/2000/svg"
   xmlns="http://www.w3.org/2000/svg"
   xmlns:sodipodi="http://sodipodi.sourceforge.net/DTD/sodipodi-0.dtd"
   xmlns:inkscape="http://www.inkscape.org/namespaces/inkscape"
   width="157.45482mm"
   height="47.229595mm"
   viewBox="0 0 157.45482 47.229595"
   version="1.1"
   id="svg2248"
   inkscape:version="0.91 r13725"
   sodipodi:docname="slogan.svg">
  <defs
     id="defs2242" />
  <sodipodi:namedview
     id="base"
     pagecolor="#ffffff"
     bordercolor="#666666"
     borderopacity="1.0"
     inkscape:pageopacity="0.0"
     inkscape:pageshadow="2"
     inkscape:zoom="0.76152344"
     inkscape:cx="114.1695"
     inkscape:cy="274.96707"
     inkscape:document-units="mm"
     inkscape:current-layer="layer1"
     showgrid="false"
     fit-margin-top="0"
     fit-margin-left="0"
     fit-margin-right="0"
     fit-margin-bottom="0"
     inkscape:window-width="1366"
     inkscape:window-height="732"
     inkscape:window-x="0"
     inkscape:window-y="0"
     inkscape:window-maximized="1" />
  <metadata
     id="metadata2245">
    <rdf:RDF>
      <cc:Work
         rdf:about="">
        <dc:format>image/svg+xml</dc:format>
        <dc:type
           rdf:resource="http://purl.org/dc/dcmitype/StillImage" />
        <dc:title />
      </cc:Work>
    </rdf:RDF>
  </metadata>
  <g
     inkscape:label="Layer 1"
     inkscape:groupmode="layer"
     id="layer1"
     transform="translate(34.882173,-174.35544)">
    <g
       id="g6808"
       transform="matrix(0.33072917,0,0,-0.33072917,-418.87298,288.33361)">
      <text
         transform="scale(1,-1)"
         id="text6589"
         y="-227.39119"
         x="1156.3831"
         style="font-style:normal;font-variant:normal;font-weight:300;font-stretch:normal;line-height:0%;font-family:'Source Sans Pro';-inkscape-font-specification:'Source Sans Pro Light';letter-spacing:0.80068761px;word-spacing:0px;fill:#333333;fill-opacity:1;stroke:none;stroke-width:1px;stroke-linecap:butt;stroke-linejoin:miter;stroke-opacity:1"
         xml:space="preserve"
         sodipodi:linespacing="0%"><tspan
           y="-227.39119"
           x="1156.3831"
           id="tspan6591"
           sodipodi:role="line"
           style="font-size:48.04125595px;line-height:4.21999979">Belanja semakin mudah</tspan></text>
      <g
         transform="translate(48.565698)"
         id="g6597">
        <g
           id="g5726"
           transform="matrix(0.39307019,0,0,-0.39307019,1213.1209,344.62689)">
          <path
             inkscape:connector-curvature="0"
             id="path4"
             style="fill:#48b550;fill-rule:evenodd"
             d="M 93.4,0 A 93.4001,93.4001 0 0 1 186.8002,93.4001 93.4001,93.4001 0 1 1 93.4,0 Z" />
          <path
             inkscape:connector-curvature="0"
             id="path6"
             style="fill:#54d95d;fill-rule:evenodd"
             d="M 93.4,8.8597 A 84.5405,84.5405 0 0 1 177.9405,93.4001 84.5405,84.5405 0 1 1 93.4,8.8597 Z" />
          <path
             inkscape:connector-curvature="0"
             id="path8"
             style="fill:#48b550;fill-rule:evenodd"
             d="M 91.2953,177.914 C 47.3314,176.8396 11.6956,142.2011 9.0265,98.6499 L 55.835,51.8414 c -3.3219,4.2568 -6.0814,9.1091 -8.0869,14.4329 -7.081,18.7945 -7.7964,42.3893 2.429,60.7357 l -7.6431,3.0863 1.0026,15.7252 15.2351,-6.6373 c 21.1303,20.2088 50.2725,18.0819 68.5114,2.742 z" />
          <path
             inkscape:connector-curvature="0"
             id="path10"
             style="fill:#48b550;fill-rule:evenodd"
             d="m 81.8718,47.9069 c 11.105,-7.6878 26.9921,14.7419 -13.9569,11.6189 1.1508,-2.7087 1.5142,-5.377 13.9569,-11.6189 z" />
          <path
             inkscape:connector-curvature="0"
             id="path12"
             style="fill:#48b550;fill-rule:evenodd"
             d="m 120.6546,82.1007 -12.4739,12.4738 c 0.4119,14.1118 -10.9978,31.4689 -31.6834,37.3244 22.7875,18.7829 69.1691,-11.7295 44.1573,-49.7982 z" />
          <path
             inkscape:connector-curvature="0"
             id="path14"
             style="fill:#48b550;fill-rule:evenodd"
             d="m 66.6481,119.5699 c -0.7223,0.7058 0.2619,0.5508 -0.5139,0.1046 -4.9536,-2.8596 -11.6402,-22.3328 -5.8026,-34.8321 31.4657,-21.7384 42.8355,23.282 6.3165,34.7275 z" />
          <path
             inkscape:connector-curvature="0"
             id="path16"
             style="fill:#ffffff;fill-rule:evenodd"
             d="M 90.1806,32.9099 C 72.1621,33.8758 55.0135,46.9874 47.748,66.2746 c -7.081,18.7946 -7.7963,42.3891 2.429,60.7357 l -7.6429,3.0864 1.0024,15.7251 15.2351,-6.6374 c 40.6783,38.904 111.0688,-4.9438 76.1439,-66.5539 -10.5871,6.4333 -3.713,2.5571 -14.3016,9.4057 25.1069,38.0987 -21.3162,68.6559 -44.1164,49.8628 21.4527,-6.0728 32.9311,-24.5167 31.5906,-38.8814 -1.0476,-11.2107 -7.4584,-19.2634 -18.1497,-23.0735 25.0743,-3.116 28.1355,-33.5465 0.2422,-37.0342 z m -23.5325,86.6603 c -0.7223,0.7055 0.2619,0.5506 -0.5139,0.1042 -4.9536,-2.8596 -11.6402,-22.3327 -5.8026,-34.832 31.4655,-21.7386 42.8353,23.2819 6.3165,34.7278 z M 81.8719,47.9068 c 11.105,-7.6878 26.9921,14.7421 -13.9567,11.6191 1.1506,-2.7091 1.5139,-5.3772 13.9567,-11.6191 z" />
        </g>
        <text
           xml:space="preserve"
           style="font-style:normal;font-variant:normal;font-weight:normal;font-stretch:normal;line-height:0%;font-family:'Source Sans Pro';-inkscape-font-specification:'Source Sans Pro';letter-spacing:0.80000001px;word-spacing:0px;fill:#48b550;fill-opacity:1;stroke:none;stroke-width:1px;stroke-linecap:butt;stroke-linejoin:miter;stroke-opacity:1"
           x="1298.8577"
           y="-290.01956"
           id="text6593"
           transform="scale(1,-1)"><tspan
             sodipodi:role="line"
             id="tspan6595"
             x="1298.8577"
             y="-290.01956"
             style="font-style:normal;font-variant:normal;font-weight:normal;font-stretch:normal;font-size:48px;line-height:4.21999979;font-family:'Source Sans Pro';-inkscape-font-specification:'Source Sans Pro';letter-spacing:0.072px;fill:#48b550;fill-opacity:1">Bi-Mobile</tspan></text>
      </g>
    </g>
  </g>
</svg>
