<?xml version="1.0" standalone="no"?>
<!DOCTYPE svg PUBLIC "-//W3C//DTD SVG 20010904//EN"
 "http://www.w3.org/TR/2001/REC-SVG-20010904/DTD/svg10.dtd">
<svg version="1.0" xmlns="http://www.w3.org/2000/svg"
 width="700.000000pt" height="700.000000pt" viewBox="0 0 700.000000 700.000000"
 preserveAspectRatio="xMidYMid meet">
<metadata>
Created by potrace 1.11, written by Peter Selinger 2001-2013
</metadata>
<g transform="translate(0.000000,700.000000) scale(0.100000,-0.100000)"
fill="#000000" stroke="none">
<path d="M3315 6994 c-683 -43 -1319 -268 -1860 -657 -631 -455 -1102 -1124
-1314 -1867 -266 -931 -144 -1905 344 -2740 296 -506 739 -949 1245 -1245 485
-283 990 -437 1566 -476 279 -19 612 5 914 67 1205 248 2206 1130 2597 2289
85 253 137 485 169 750 24 200 25 594 1 780 -87 674 -343 1284 -753 1800 -113
141 -388 416 -529 529 -508 404 -1112 660 -1765 747 -140 19 -480 31 -615 23z
m235 -1260 c293 -76 494 -259 556 -504 21 -85 14 -240 -15 -323 -89 -253 -302
-433 -597 -505 l-112 -27 80 -34 c367 -156 587 -496 588 -907 0 -140 -18 -248
-62 -372 -155 -439 -533 -802 -1008 -966 -57 -20 -105 -38 -107 -40 -2 -1 21
-19 49 -38 180 -121 338 -168 570 -168 345 0 671 141 933 404 255 255 381 578
361 919 -14 230 -90 458 -235 703 l-31 50 145 100 c158 108 324 216 367 239
l27 15 60 -118 c139 -273 232 -557 272 -827 17 -114 17 -435 1 -540 -62 -380
-214 -696 -463 -959 -170 -179 -328 -296 -543 -402 -694 -340 -1498 -239
-2081 261 -39 33 -78 66 -88 74 -15 12 -50 -1 -298 -109 -154 -67 -282 -120
-284 -118 -6 5 -43 571 -39 579 2 3 66 32 143 63 l140 58 -43 86 c-297 595
-325 1382 -75 2110 233 677 775 1180 1402 1302 180 35 234 34 387 -6z"/>
<path d="M3155 5248 c-50 -18 -315 -167 -390 -219 -38 -26 -91 -70 -117 -96
-47 -49 -105 -149 -93 -161 4 -4 122 -7 263 -7 227 1 269 4 360 23 227 49 337
121 357 233 14 79 -61 181 -163 219 -58 22 -166 26 -217 8z"/>
<path d="M2715 4025 c-114 -21 -247 -78 -409 -175 -131 -79 -167 -517 -71
-876 49 -184 147 -383 217 -437 l30 -24 87 32 c463 173 755 512 778 905 13
224 -84 427 -248 523 -59 35 -186 67 -258 66 -31 0 -87 -7 -126 -14z"/>
</g>
</svg>
